<mxfile host="Electron" agent="Mozilla/5.0 (Windows NT 10.0; Win64; x64) AppleWebKit/537.36 (KHTML, like Gecko) draw.io/28.0.6 Chrome/138.0.7204.100 Electron/37.2.3 Safari/537.36" version="28.0.6">
  <diagram name="Page-1" id="mLi-BBtrwLF8Wj2_Tw1D">
    <mxGraphModel dx="2037" dy="1384" grid="1" gridSize="10" guides="1" tooltips="1" connect="1" arrows="1" fold="1" page="1" pageScale="1" pageWidth="850" pageHeight="1100" math="0" shadow="0">
      <root>
        <mxCell id="0" />
        <mxCell id="1" parent="0" />
        <mxCell id="_2PUDbWVSyQnUeZJxXWn-3" value="" style="rounded=0;whiteSpace=wrap;html=1;fillColor=none;dashed=1;fontStyle=1" vertex="1" parent="1">
          <mxGeometry x="40" y="80" width="160" height="560" as="geometry" />
        </mxCell>
        <mxCell id="_2PUDbWVSyQnUeZJxXWn-4" value="Source" style="rounded=0;whiteSpace=wrap;html=1;fillColor=default;strokeColor=none;fontSize=24;" vertex="1" parent="1">
          <mxGeometry x="80" y="70" width="80" height="30" as="geometry" />
        </mxCell>
        <mxCell id="_2PUDbWVSyQnUeZJxXWn-7" value="" style="rounded=0;whiteSpace=wrap;html=1;fillColor=none;dashed=1;" vertex="1" parent="1">
          <mxGeometry x="280" y="76.02" width="840" height="560" as="geometry" />
        </mxCell>
        <mxCell id="_2PUDbWVSyQnUeZJxXWn-8" value="Data Warehouse" style="rounded=0;whiteSpace=wrap;html=1;fillColor=default;strokeColor=none;fontSize=24;" vertex="1" parent="1">
          <mxGeometry x="605" y="70" width="190" height="30" as="geometry" />
        </mxCell>
        <mxCell id="_2PUDbWVSyQnUeZJxXWn-10" value="" style="rounded=0;whiteSpace=wrap;html=1;fillColor=none;dashed=1;" vertex="1" parent="1">
          <mxGeometry x="1200" y="80" width="160" height="560" as="geometry" />
        </mxCell>
        <mxCell id="_2PUDbWVSyQnUeZJxXWn-11" value="Consumer" style="rounded=0;whiteSpace=wrap;html=1;fillColor=default;strokeColor=none;fontSize=24;" vertex="1" parent="1">
          <mxGeometry x="1217.5" y="70" width="125" height="30" as="geometry" />
        </mxCell>
        <mxCell id="_2PUDbWVSyQnUeZJxXWn-13" value="Bronze Layer" style="rounded=0;whiteSpace=wrap;html=1;fillColor=#ffe6cc;strokeColor=#d79b00;fontSize=18;strokeWidth=2;" vertex="1" parent="1">
          <mxGeometry x="320" y="120" width="200" height="30" as="geometry" />
        </mxCell>
        <mxCell id="_2PUDbWVSyQnUeZJxXWn-15" value="" style="rounded=0;whiteSpace=wrap;html=1;fillColor=none;strokeColor=#d79b00;strokeWidth=2;" vertex="1" parent="1">
          <mxGeometry x="320" y="160" width="200" height="450" as="geometry" />
        </mxCell>
        <mxCell id="_2PUDbWVSyQnUeZJxXWn-16" value="Silver Layer" style="rounded=0;whiteSpace=wrap;html=1;fillColor=#f5f5f5;strokeColor=#666666;fontSize=18;fontColor=#333333;strokeWidth=2;" vertex="1" parent="1">
          <mxGeometry x="600" y="120" width="200" height="30" as="geometry" />
        </mxCell>
        <mxCell id="_2PUDbWVSyQnUeZJxXWn-17" value="" style="rounded=0;whiteSpace=wrap;html=1;fillColor=none;strokeColor=#666666;fontColor=#333333;strokeWidth=2;" vertex="1" parent="1">
          <mxGeometry x="600" y="160" width="200" height="450" as="geometry" />
        </mxCell>
        <mxCell id="_2PUDbWVSyQnUeZJxXWn-18" value="Gold Layer" style="rounded=0;whiteSpace=wrap;html=1;fillColor=#fff2cc;strokeColor=#d6b656;fontSize=18;strokeWidth=2;" vertex="1" parent="1">
          <mxGeometry x="880" y="120" width="200" height="30" as="geometry" />
        </mxCell>
        <mxCell id="_2PUDbWVSyQnUeZJxXWn-19" value="" style="rounded=0;whiteSpace=wrap;html=1;fillColor=none;strokeColor=#d6b656;strokeWidth=2;" vertex="1" parent="1">
          <mxGeometry x="880" y="160" width="200" height="450" as="geometry" />
        </mxCell>
        <mxCell id="_2PUDbWVSyQnUeZJxXWn-20" value="CRM" style="image;aspect=fixed;html=1;points=[];align=center;fontSize=12;image=img/lib/azure2/general/Folder_Blank.svg;fontStyle=1" vertex="1" parent="1">
          <mxGeometry x="87" y="148.05" width="59" height="47.88" as="geometry" />
        </mxCell>
        <mxCell id="_2PUDbWVSyQnUeZJxXWn-21" value="" style="image;aspect=fixed;html=1;points=[];align=center;fontSize=12;image=img/lib/azure2/general/File.svg;" vertex="1" parent="1">
          <mxGeometry x="120" y="160" width="26" height="32.04" as="geometry" />
        </mxCell>
        <mxCell id="_2PUDbWVSyQnUeZJxXWn-24" value="ERP" style="image;aspect=fixed;html=1;points=[];align=center;fontSize=12;image=img/lib/azure2/general/Folder_Blank.svg;fontStyle=1" vertex="1" parent="1">
          <mxGeometry x="87" y="278.05" width="59" height="47.88" as="geometry" />
        </mxCell>
        <mxCell id="_2PUDbWVSyQnUeZJxXWn-25" value="" style="image;aspect=fixed;html=1;points=[];align=center;fontSize=12;image=img/lib/azure2/general/File.svg;" vertex="1" parent="1">
          <mxGeometry x="120" y="290" width="26" height="32.04" as="geometry" />
        </mxCell>
        <mxCell id="_2PUDbWVSyQnUeZJxXWn-27" value="" style="line;strokeWidth=2;html=1;strokeColor=#989898;" vertex="1" parent="1">
          <mxGeometry x="60" y="400" width="120" height="10" as="geometry" />
        </mxCell>
        <mxCell id="_2PUDbWVSyQnUeZJxXWn-28" value="&lt;b&gt;Object Type: &lt;/b&gt;CSV File&lt;div&gt;&lt;b&gt;Interface:&lt;/b&gt; Files in Folder&lt;/div&gt;" style="rounded=1;whiteSpace=wrap;html=1;strokeColor=none;fillColor=none;" vertex="1" parent="1">
          <mxGeometry x="44.75" y="420" width="149.5" height="60" as="geometry" />
        </mxCell>
        <mxCell id="_2PUDbWVSyQnUeZJxXWn-31" value="" style="html=1;verticalLabelPosition=bottom;align=center;labelBackgroundColor=#ffffff;verticalAlign=top;strokeWidth=2;strokeColor=#d79b00;shadow=0;dashed=0;shape=mxgraph.ios7.icons.data;fillColor=#ffe6cc;" vertex="1" parent="1">
          <mxGeometry x="385" y="204.07" width="70" height="73.98" as="geometry" />
        </mxCell>
        <mxCell id="_2PUDbWVSyQnUeZJxXWn-38" value="Raw Data" style="rounded=0;whiteSpace=wrap;html=1;strokeColor=none;fillColor=none;fontSize=14;" vertex="1" parent="1">
          <mxGeometry x="370" y="280" width="100" height="30" as="geometry" />
        </mxCell>
        <mxCell id="_2PUDbWVSyQnUeZJxXWn-39" value="Cleaned, Standardized Data" style="rounded=0;whiteSpace=wrap;html=1;strokeColor=none;fillColor=none;fontSize=14;" vertex="1" parent="1">
          <mxGeometry x="625" y="280" width="170" height="30" as="geometry" />
        </mxCell>
        <mxCell id="_2PUDbWVSyQnUeZJxXWn-40" value="Business-ready Data" style="rounded=0;whiteSpace=wrap;html=1;strokeColor=none;fillColor=none;fontSize=14;" vertex="1" parent="1">
          <mxGeometry x="900" y="280" width="160" height="30" as="geometry" />
        </mxCell>
        <mxCell id="_2PUDbWVSyQnUeZJxXWn-42" value="" style="line;strokeWidth=2;html=1;strokeColor=#d79b00;fillColor=#ffe6cc;" vertex="1" parent="1">
          <mxGeometry x="340" y="315" width="160" height="10" as="geometry" />
        </mxCell>
        <mxCell id="_2PUDbWVSyQnUeZJxXWn-43" value="" style="line;strokeWidth=2;html=1;strokeColor=#989898;" vertex="1" parent="1">
          <mxGeometry x="650" y="315" width="120" height="10" as="geometry" />
        </mxCell>
        <mxCell id="_2PUDbWVSyQnUeZJxXWn-44" value="" style="line;strokeWidth=2;html=1;strokeColor=#d6b656;fillColor=#fff2cc;" vertex="1" parent="1">
          <mxGeometry x="930" y="315" width="120" height="10" as="geometry" />
        </mxCell>
        <mxCell id="_2PUDbWVSyQnUeZJxXWn-46" value="&lt;b&gt;Object Type: &lt;/b&gt;Table&lt;div&gt;&lt;br&gt;&lt;div&gt;&lt;b&gt;Load:&amp;nbsp;&lt;/b&gt;&lt;/div&gt;&lt;/div&gt;&lt;div&gt;&lt;ul&gt;&lt;li&gt;Batch Processing&lt;/li&gt;&lt;li&gt;Full Load&lt;/li&gt;&lt;li&gt;Truncate &amp;amp; Insert&lt;/li&gt;&lt;/ul&gt;&lt;div&gt;No &lt;b&gt;Transformation&lt;/b&gt;&lt;/div&gt;&lt;/div&gt;&lt;div&gt;&lt;br&gt;&lt;/div&gt;&lt;div&gt;&lt;b&gt;Data Model:&lt;/b&gt; None (as-is)&lt;/div&gt;" style="rounded=1;whiteSpace=wrap;html=1;strokeColor=none;fillColor=none;align=left;fontSize=11;" vertex="1" parent="1">
          <mxGeometry x="345.25" y="327.88" width="149.5" height="162.12" as="geometry" />
        </mxCell>
        <mxCell id="_2PUDbWVSyQnUeZJxXWn-47" value="&lt;b&gt;Object Type: &lt;/b&gt;Tables&lt;div&gt;&lt;br&gt;&lt;/div&gt;&lt;div&gt;&lt;b&gt;Load:&lt;/b&gt;&lt;/div&gt;&lt;div&gt;&lt;ul&gt;&lt;li&gt;Batch Processing&lt;/li&gt;&lt;li&gt;Full Load&lt;/li&gt;&lt;li&gt;Truncate &amp;amp; Insert&lt;/li&gt;&lt;/ul&gt;&lt;div&gt;&lt;b&gt;Transformation:&lt;/b&gt;&lt;/div&gt;&lt;/div&gt;&lt;div&gt;&lt;ul&gt;&lt;li&gt;Data Cleaning&lt;/li&gt;&lt;li&gt;Data Standardization&lt;/li&gt;&lt;li&gt;Data Normalization&lt;/li&gt;&lt;li&gt;Derived Columns&lt;/li&gt;&lt;li&gt;Data Enrichment&lt;/li&gt;&lt;/ul&gt;&lt;/div&gt;&lt;div&gt;&lt;b&gt;&lt;br&gt;&lt;/b&gt;&lt;/div&gt;&lt;div&gt;&lt;b&gt;Data Model: &lt;/b&gt;None (as-is)&lt;/div&gt;" style="rounded=1;whiteSpace=wrap;html=1;strokeColor=none;fillColor=none;align=left;fontSize=11;" vertex="1" parent="1">
          <mxGeometry x="627.62" y="327.88" width="164.75" height="227.96" as="geometry" />
        </mxCell>
        <mxCell id="_2PUDbWVSyQnUeZJxXWn-48" value="&lt;b&gt;Object Type: &lt;/b&gt;Views&lt;div&gt;&lt;br&gt;&lt;/div&gt;&lt;div&gt;No &lt;b&gt;Load&lt;/b&gt;&lt;/div&gt;&lt;div&gt;&lt;br&gt;&lt;/div&gt;&lt;div&gt;&lt;b&gt;Transformation:&lt;/b&gt;&lt;/div&gt;&lt;div&gt;&lt;ul&gt;&lt;li&gt;Data Integration&lt;/li&gt;&lt;li&gt;Aggregation&lt;/li&gt;&lt;li&gt;Business Logic&lt;/li&gt;&lt;/ul&gt;&lt;div&gt;&lt;br&gt;&lt;/div&gt;&lt;/div&gt;&lt;div&gt;&lt;b&gt;Data Model:&lt;/b&gt;&lt;/div&gt;&lt;div&gt;&lt;ul&gt;&lt;li&gt;Star Schema&lt;/li&gt;&lt;li&gt;Flat Table&lt;/li&gt;&lt;li&gt;Aggregated Table&lt;/li&gt;&lt;/ul&gt;&lt;/div&gt;&lt;div&gt;&lt;br&gt;&lt;/div&gt;" style="rounded=1;whiteSpace=wrap;html=1;strokeColor=none;fillColor=none;align=left;fontSize=11;" vertex="1" parent="1">
          <mxGeometry x="900" y="323.71999999999997" width="160" height="232.12" as="geometry" />
        </mxCell>
        <mxCell id="_2PUDbWVSyQnUeZJxXWn-49" value="" style="html=1;verticalLabelPosition=bottom;align=center;labelBackgroundColor=#ffffff;verticalAlign=top;strokeWidth=2;strokeColor=#666666;shadow=0;dashed=0;shape=mxgraph.ios7.icons.data;fillColor=#f5f5f5;fontColor=#333333;" vertex="1" parent="1">
          <mxGeometry x="665" y="204.07" width="70" height="73.98" as="geometry" />
        </mxCell>
        <mxCell id="_2PUDbWVSyQnUeZJxXWn-50" value="" style="html=1;verticalLabelPosition=bottom;align=center;labelBackgroundColor=#ffffff;verticalAlign=top;strokeWidth=2;strokeColor=#d6b656;shadow=0;dashed=0;shape=mxgraph.ios7.icons.data;fillColor=#fff2cc;" vertex="1" parent="1">
          <mxGeometry x="945" y="206.02" width="70" height="73.98" as="geometry" />
        </mxCell>
        <mxCell id="_2PUDbWVSyQnUeZJxXWn-51" value="" style="html=1;shadow=0;dashed=0;align=center;verticalAlign=middle;shape=mxgraph.arrows2.arrow;dy=0.6;dx=40;notch=0;fillColor=#dae8fc;strokeColor=#6c8ebf;" vertex="1" parent="1">
          <mxGeometry x="194.25" y="240" width="110" height="50" as="geometry" />
        </mxCell>
        <mxCell id="_2PUDbWVSyQnUeZJxXWn-52" value="" style="html=1;shadow=0;dashed=0;align=center;verticalAlign=middle;shape=mxgraph.arrows2.arrow;dy=0.6;dx=40;notch=0;fillColor=#dae8fc;strokeColor=#6c8ebf;" vertex="1" parent="1">
          <mxGeometry x="500" y="240" width="110" height="50" as="geometry" />
        </mxCell>
        <mxCell id="_2PUDbWVSyQnUeZJxXWn-53" value="" style="html=1;shadow=0;dashed=0;align=center;verticalAlign=middle;shape=mxgraph.arrows2.arrow;dy=0.6;dx=40;notch=0;fillColor=#dae8fc;strokeColor=#6c8ebf;" vertex="1" parent="1">
          <mxGeometry x="780" y="240" width="110" height="50" as="geometry" />
        </mxCell>
        <mxCell id="_2PUDbWVSyQnUeZJxXWn-54" value="" style="html=1;shadow=0;dashed=0;align=center;verticalAlign=middle;shape=mxgraph.arrows2.arrow;dy=0.6;dx=40;notch=0;fillColor=#dae8fc;strokeColor=#6c8ebf;" vertex="1" parent="1">
          <mxGeometry x="1100" y="240" width="110" height="50" as="geometry" />
        </mxCell>
        <mxCell id="_2PUDbWVSyQnUeZJxXWn-55" value="BI &amp;amp; Reporting" style="image;aspect=fixed;html=1;points=[];align=center;fontSize=13;image=img/lib/azure2/analytics/Power_BI_Embedded.svg;" vertex="1" parent="1">
          <mxGeometry x="1250" y="180" width="51" height="68" as="geometry" />
        </mxCell>
        <mxCell id="_2PUDbWVSyQnUeZJxXWn-57" value="Ad-Hoc SQL Queries" style="sketch=0;points=[[0,0,0],[0.25,0,0],[0.5,0,0],[0.75,0,0],[1,0,0],[0,1,0],[0.25,1,0],[0.5,1,0],[0.75,1,0],[1,1,0],[0,0.25,0],[0,0.5,0],[0,0.75,0],[1,0.25,0],[1,0.5,0],[1,0.75,0]];outlineConnect=0;fontColor=#232F3E;fillColor=#8C4FFF;strokeColor=#ffffff;dashed=0;verticalLabelPosition=bottom;verticalAlign=top;align=center;html=1;fontSize=13;fontStyle=0;aspect=fixed;shape=mxgraph.aws4.resourceIcon;resIcon=mxgraph.aws4.sql_workbench;" vertex="1" parent="1">
          <mxGeometry x="1241" y="327.88" width="78" height="78" as="geometry" />
        </mxCell>
        <mxCell id="_2PUDbWVSyQnUeZJxXWn-59" value="Machine Learning" style="editableCssRules=.*;html=1;shape=image;verticalLabelPosition=bottom;labelBackgroundColor=#ffffff;verticalAlign=top;aspect=fixed;imageAspect=0;image=data:image/svg+xml,PHN2ZyB4bWxucz0iaHR0cDovL3d3dy53My5vcmcvMjAwMC9zdmciIHhtbG5zOnY9Imh0dHBzOi8vdmVjdGEuaW8vbmFubyIgd2lkdGg9IjE2Ljk3OTk5OTU0MjIzNjMyOCIgaGVpZ2h0PSIyMCIgdmlld0JveD0iMCAwIDE2Ljk3OTk5OTU0MjIzNjMyOCAyMCI+JiN4YTsJPHN0eWxlIHR5cGU9InRleHQvY3NzIj4mI3hhOwkuc3Qwe2ZpbGw6IzY2OWRmNjt9JiN4YTsJLnN0MXtmaWxsOiM0Mjg1ZjQ7fSYjeGE7CS5zdDJ7ZmlsbDojYWVjYmZhO30mI3hhOwk8L3N0eWxlPiYjeGE7CTxnIGNsYXNzPSJzdDAiPiYjeGE7CQk8cGF0aCBkPSJNOC40OSAxMC4yOUwuMjQgNS4zNSA4LjQ5LjU4bDguMjQgNC42N3pNMS43NiA1LjM2bDYuNzIgNCA2LjcyLTQuMTEtNi43MS0zLjc4eiIvPiYjeGE7CQk8cGF0aCBkPSJNOC40OSAxOS40NEwuMjEgMTMuODkgOC40OSA5LjNsOC4xNSA0LjY0em0tNi44LTUuNWw2LjggNC41NiA2LjctNC41LTYuNy0zLjgyeiIvPiYjeGE7CTwvZz4mI3hhOwk8ZyBjbGFzcz0ic3QxIj4mI3hhOwkJPHBhdGggZD0iTS42MTMgNS41MDJsLjY3NS0uMzcxIDcuNDc3IDEzLjYtLjY3NS4zNzF6Ii8+JiN4YTsJCTxwYXRoIGQ9Ik04LjE5NCAxOC44MjZsNy4zMDEtMTMuNTU5LjY3OC4zNjUtNy4zMDEgMTMuNTU5ek0uNzE2IDEzLjY4N0w4LjA5Ni45MDRsLjY2Ny4zODUtNy4zOCAxMi43ODN6Ii8+JiN4YTsJCTxwYXRoIGQ9Ik04LjE5NCAxLjIxNGwuNjY5LS4zODEgNy40MDUgMTIuOTg3LS42NjkuMzgxeiIvPiYjeGE7CQk8cGF0aCBkPSJNOC4xMy45NmguNzdWMTguOWgtLjc3ek0uNTUgNS40M2guNzd2OC42NkguNTV6bTE0Ljk3LS4wOWguNzdWMTRoLS43N3oiLz4mI3hhOwk8L2c+JiN4YTsJPGcgY2xhc3M9InN0MiI+JiN4YTsJCTxjaXJjbGUgY3g9IjguNTIiIGN5PSIxLjA3IiByPSIxLjA3Ii8+JiN4YTsJCTxjaXJjbGUgY3g9IjE1LjkxIiBjeT0iNS4zNCIgcj0iMS4wNyIvPiYjeGE7CQk8Y2lyY2xlIGN4PSIxLjA3IiBjeT0iNS4zNCIgcj0iMS4wNyIvPiYjeGE7CQk8Y2lyY2xlIGN4PSI4LjUyIiBjeT0iOS45MyIgcj0iMS42OCIvPiYjeGE7CQk8Y2lyY2xlIGN4PSIxNS45MSIgY3k9IjEzLjk0IiByPSIxLjA3Ii8+JiN4YTsJCTxjaXJjbGUgY3g9IjEuMDciIGN5PSIxMy45NCIgcj0iMS4wNyIvPiYjeGE7CQk8Y2lyY2xlIGN4PSI4LjUyIiBjeT0iMTguOTMiIHI9IjEuMDciLz4mI3hhOwkJPHBhdGggZD0iTTguNDkgMTAuMjlMLjI0IDUuMzUgOC40OS41OGw4LjI0IDQuNjd6TTEuNzYgNS4zNmw2LjcyIDQgNi43Mi00LjExLTYuNzEtMy43OHoiLz4mI3hhOwkJPHBhdGggZD0iTTguNDkgMTkuNDRMLjIxIDEzLjg5IDguNDkgOS4zbDguMTUgNC42NHptLTYuOC01LjVsNi44IDQuNTYgNi43LTQuNS02LjctMy44MnoiLz4mI3hhOwkJPHBhdGggZD0iTS42MTMgNS41MDJsLjY3NS0uMzcxIDcuNDc3IDEzLjYtLjY3NS4zNzF6Ii8+JiN4YTsJCTxwYXRoIGQ9Ik04LjE5NCAxOC44MjZsNy4zMDEtMTMuNTU5LjY3OC4zNjUtNy4zMDEgMTMuNTU5ek0uNzE2IDEzLjY4N0w4LjA5Ni45MDRsLjY2Ny4zODUtNy4zOCAxMi43ODN6Ii8+JiN4YTsJCTxwYXRoIGQ9Ik04LjE5NCAxLjIxNGwuNjY5LS4zODEgNy40MDUgMTIuOTg3LS42NjkuMzgxeiIvPiYjeGE7CQk8cGF0aCBkPSJNOC4xMy45NmguNzdWMTguOWgtLjc3ek0uNTUgNS40M2guNzd2OC42NkguNTV6bTE0Ljk3LS4wOWguNzdWMTRoLS43N3oiLz4mI3hhOwk8L2c+JiN4YTsJPGcgY2xhc3M9InN0MCI+JiN4YTsJCTxjaXJjbGUgY3g9IjguNTIiIGN5PSIxLjA3IiByPSIxLjA3Ii8+JiN4YTsJCTxjaXJjbGUgY3g9IjE1LjkxIiBjeT0iNS4zNCIgcj0iMS4wNyIvPiYjeGE7CQk8Y2lyY2xlIGN4PSIxLjA3IiBjeT0iNS4zNCIgcj0iMS4wNyIvPiYjeGE7CQk8Y2lyY2xlIGN4PSI4LjUyIiBjeT0iOS45MyIgcj0iMS42OCIvPiYjeGE7CQk8Y2lyY2xlIGN4PSIxNS45MSIgY3k9IjEzLjk0IiByPSIxLjA3Ii8+JiN4YTsJCTxjaXJjbGUgY3g9IjEuMDciIGN5PSIxMy45NCIgcj0iMS4wNyIvPiYjeGE7CQk8Y2lyY2xlIGN4PSI4LjUyIiBjeT0iMTguOTMiIHI9IjEuMDciLz4mI3hhOwk8L2c+JiN4YTs8L3N2Zz4=;fontSize=13;" vertex="1" parent="1">
          <mxGeometry x="1246" y="470" width="68" height="80" as="geometry" />
        </mxCell>
        <mxCell id="_2PUDbWVSyQnUeZJxXWn-60" value="SQL Server" style="image;aspect=fixed;html=1;points=[];align=center;fontSize=12;image=img/lib/azure2/databases/SQL_Server.svg;" vertex="1" parent="1">
          <mxGeometry x="304.25" y="20" width="68" height="68" as="geometry" />
        </mxCell>
      </root>
    </mxGraphModel>
  </diagram>
</mxfile>
